<svg width="255" height="223" viewBox="0 0 255 223" fill="none" xmlns="http://www.w3.org/2000/svg">
<g filter="url(#filter0_d_409_316)">
<rect x="4" width="247" height="215" fill="white"/>
</g>
<path fill-rule="evenodd" clip-rule="evenodd" d="M135 23.5C135 19.3579 131.642 16 127.5 16C123.358 16 120 19.3579 120 23.5V59C120 67.2843 113.284 74 105 74H70.5C66.3579 74 63 77.3579 63 81.5C63 85.6421 66.3579 89 70.5 89H105C113.284 89 120 95.7157 120 104V138.5C120 142.642 123.358 146 127.5 146C131.642 146 135 142.642 135 138.5V104C135 95.7157 141.716 89 150 89H185.5C189.642 89 193 85.6421 193 81.5C193 77.3579 189.642 74 185.5 74H150C141.716 74 135 67.2843 135 59V23.5Z" fill="#00E0FF"/>
<path d="M64.6619 168.435H61.4744C61.3835 167.912 61.2159 167.449 60.9716 167.045C60.7273 166.636 60.4233 166.29 60.0597 166.006C59.696 165.722 59.2813 165.509 58.8153 165.366C58.3551 165.219 57.858 165.145 57.3239 165.145C56.375 165.145 55.5341 165.384 54.8011 165.861C54.0682 166.332 53.4943 167.026 53.0795 167.94C52.6648 168.849 52.4574 169.96 52.4574 171.273C52.4574 172.608 52.6648 173.733 53.0795 174.648C53.5 175.557 54.0739 176.244 54.8011 176.71C55.5341 177.17 56.3722 177.401 57.3153 177.401C57.8381 177.401 58.3267 177.332 58.7812 177.196C59.2415 177.054 59.6534 176.847 60.017 176.574C60.3864 176.301 60.696 175.966 60.946 175.568C61.2017 175.17 61.3778 174.716 61.4744 174.205L64.6619 174.222C64.5426 175.051 64.2841 175.83 63.8864 176.557C63.4943 177.284 62.9801 177.926 62.3438 178.483C61.7074 179.034 60.9631 179.466 60.1108 179.778C59.2585 180.085 58.3125 180.239 57.2727 180.239C55.7386 180.239 54.3693 179.884 53.1648 179.173C51.9602 178.463 51.0114 177.438 50.3182 176.097C49.625 174.756 49.2784 173.148 49.2784 171.273C49.2784 169.392 49.6278 167.784 50.3267 166.449C51.0256 165.108 51.9773 164.082 53.1818 163.372C54.3864 162.662 55.75 162.307 57.2727 162.307C58.2443 162.307 59.1477 162.443 59.983 162.716C60.8182 162.989 61.5625 163.389 62.2159 163.918C62.8693 164.44 63.4063 165.082 63.8267 165.844C64.2528 166.599 64.5313 167.463 64.6619 168.435ZM67.4212 180V166.909H70.4126V169.091H70.549C70.7876 168.335 71.1967 167.753 71.7763 167.344C72.3615 166.929 73.0291 166.722 73.7791 166.722C73.9496 166.722 74.1399 166.73 74.3501 166.747C74.5661 166.759 74.745 166.778 74.8871 166.807V169.645C74.7564 169.599 74.549 169.56 74.2649 169.526C73.9865 169.486 73.7166 169.466 73.4553 169.466C72.8928 169.466 72.3871 169.588 71.9382 169.832C71.495 170.071 71.1456 170.403 70.8899 170.83C70.6342 171.256 70.5064 171.747 70.5064 172.304V180H67.4212ZM82.1932 180.256C80.8807 180.256 79.7472 179.983 78.7926 179.438C77.8438 178.886 77.1136 178.108 76.6023 177.102C76.0909 176.091 75.8352 174.901 75.8352 173.531C75.8352 172.185 76.0909 171.003 76.6023 169.986C77.1193 168.963 77.8409 168.168 78.767 167.599C79.6932 167.026 80.7812 166.739 82.0312 166.739C82.8381 166.739 83.5994 166.869 84.3153 167.131C85.0369 167.386 85.6733 167.784 86.2244 168.324C86.7813 168.864 87.2188 169.551 87.5369 170.386C87.8551 171.216 88.0142 172.205 88.0142 173.352V174.298H77.2841V172.219H85.0568C85.0511 171.628 84.9233 171.102 84.6733 170.642C84.4233 170.176 84.0739 169.81 83.625 169.543C83.1818 169.276 82.6648 169.142 82.0739 169.142C81.4432 169.142 80.8892 169.295 80.4119 169.602C79.9347 169.903 79.5625 170.301 79.2955 170.795C79.0341 171.284 78.9006 171.821 78.8949 172.406V174.222C78.8949 174.983 79.0341 175.636 79.3125 176.182C79.5909 176.722 79.9801 177.136 80.4801 177.426C80.9801 177.71 81.5653 177.852 82.2358 177.852C82.6847 177.852 83.0909 177.79 83.4545 177.665C83.8182 177.534 84.1335 177.344 84.4006 177.094C84.6676 176.844 84.8693 176.534 85.0057 176.165L87.8864 176.489C87.7045 177.25 87.358 177.915 86.8466 178.483C86.3409 179.045 85.6932 179.483 84.9034 179.795C84.1136 180.102 83.2102 180.256 82.1932 180.256ZM94.3913 180.264C93.5618 180.264 92.8146 180.116 92.1499 179.821C91.4908 179.52 90.968 179.077 90.5817 178.491C90.201 177.906 90.0107 177.185 90.0107 176.327C90.0107 175.588 90.147 174.977 90.4197 174.494C90.6925 174.011 91.0646 173.625 91.5362 173.335C92.0078 173.045 92.5391 172.827 93.13 172.679C93.7266 172.526 94.343 172.415 94.9794 172.347C95.7464 172.267 96.3686 172.196 96.8459 172.134C97.3232 172.065 97.6697 171.963 97.8857 171.827C98.1072 171.685 98.218 171.466 98.218 171.17V171.119C98.218 170.477 98.0277 169.98 97.647 169.628C97.2663 169.276 96.718 169.099 96.0021 169.099C95.2464 169.099 94.647 169.264 94.2038 169.594C93.7663 169.923 93.4709 170.312 93.3175 170.761L90.4368 170.352C90.6641 169.557 91.0391 168.892 91.5618 168.358C92.0845 167.818 92.7237 167.415 93.4794 167.148C94.2351 166.875 95.0703 166.739 95.9851 166.739C96.6158 166.739 97.2436 166.812 97.8686 166.96C98.4936 167.108 99.0646 167.352 99.5817 167.693C100.099 168.028 100.513 168.486 100.826 169.065C101.144 169.645 101.303 170.369 101.303 171.239V180H98.3374V178.202H98.2351C98.0476 178.565 97.7834 178.906 97.4425 179.224C97.1072 179.537 96.6839 179.79 96.1726 179.983C95.6669 180.17 95.0732 180.264 94.3913 180.264ZM95.1925 177.997C95.8118 177.997 96.3487 177.875 96.8033 177.631C97.2578 177.381 97.6072 177.051 97.8516 176.642C98.1016 176.233 98.2266 175.787 98.2266 175.304V173.761C98.13 173.841 97.9652 173.915 97.7322 173.983C97.505 174.051 97.2493 174.111 96.9652 174.162C96.6811 174.213 96.3999 174.259 96.1214 174.298C95.843 174.338 95.6016 174.372 95.397 174.401C94.9368 174.463 94.5249 174.565 94.1612 174.707C93.7976 174.849 93.5107 175.048 93.3004 175.304C93.0902 175.554 92.9851 175.878 92.9851 176.276C92.9851 176.844 93.1925 177.273 93.6072 177.562C94.022 177.852 94.5504 177.997 95.1925 177.997ZM110.942 166.909V169.295H103.417V166.909H110.942ZM105.275 163.773H108.36V176.062C108.36 176.477 108.423 176.795 108.548 177.017C108.678 177.233 108.849 177.381 109.059 177.46C109.269 177.54 109.502 177.58 109.758 177.58C109.951 177.58 110.127 177.565 110.286 177.537C110.451 177.509 110.576 177.483 110.661 177.46L111.181 179.872C111.016 179.929 110.781 179.991 110.474 180.06C110.173 180.128 109.803 180.168 109.366 180.179C108.593 180.202 107.897 180.085 107.278 179.83C106.658 179.568 106.167 179.165 105.803 178.619C105.445 178.074 105.269 177.392 105.275 176.574V163.773ZM119.178 180.256C117.865 180.256 116.732 179.983 115.777 179.438C114.828 178.886 114.098 178.108 113.587 177.102C113.075 176.091 112.82 174.901 112.82 173.531C112.82 172.185 113.075 171.003 113.587 169.986C114.104 168.963 114.825 168.168 115.751 167.599C116.678 167.026 117.766 166.739 119.016 166.739C119.822 166.739 120.584 166.869 121.3 167.131C122.021 167.386 122.658 167.784 123.209 168.324C123.766 168.864 124.203 169.551 124.521 170.386C124.839 171.216 124.999 172.205 124.999 173.352V174.298H114.268V172.219H122.041C122.036 171.628 121.908 171.102 121.658 170.642C121.408 170.176 121.058 169.81 120.609 169.543C120.166 169.276 119.649 169.142 119.058 169.142C118.428 169.142 117.874 169.295 117.396 169.602C116.919 169.903 116.547 170.301 116.28 170.795C116.018 171.284 115.885 171.821 115.879 172.406V174.222C115.879 174.983 116.018 175.636 116.297 176.182C116.575 176.722 116.964 177.136 117.464 177.426C117.964 177.71 118.55 177.852 119.22 177.852C119.669 177.852 120.075 177.79 120.439 177.665C120.803 177.534 121.118 177.344 121.385 177.094C121.652 176.844 121.854 176.534 121.99 176.165L124.871 176.489C124.689 177.25 124.342 177.915 123.831 178.483C123.325 179.045 122.678 179.483 121.888 179.795C121.098 180.102 120.195 180.256 119.178 180.256ZM133.698 180V162.545H140.244C141.585 162.545 142.71 162.795 143.619 163.295C144.533 163.795 145.224 164.483 145.69 165.358C146.161 166.227 146.397 167.216 146.397 168.324C146.397 169.443 146.161 170.437 145.69 171.307C145.218 172.176 144.522 172.861 143.602 173.361C142.681 173.855 141.548 174.102 140.201 174.102H135.863V171.503H139.775C140.559 171.503 141.201 171.366 141.701 171.094C142.201 170.821 142.57 170.446 142.809 169.969C143.053 169.491 143.175 168.943 143.175 168.324C143.175 167.705 143.053 167.159 142.809 166.688C142.57 166.216 142.198 165.849 141.692 165.588C141.192 165.321 140.548 165.188 139.758 165.188H136.86V180H133.698ZM154.53 180.256C153.251 180.256 152.143 179.974 151.206 179.412C150.268 178.849 149.541 178.062 149.024 177.051C148.513 176.04 148.257 174.858 148.257 173.506C148.257 172.153 148.513 170.969 149.024 169.952C149.541 168.935 150.268 168.145 151.206 167.582C152.143 167.02 153.251 166.739 154.53 166.739C155.808 166.739 156.916 167.02 157.854 167.582C158.791 168.145 159.516 168.935 160.027 169.952C160.544 170.969 160.803 172.153 160.803 173.506C160.803 174.858 160.544 176.04 160.027 177.051C159.516 178.062 158.791 178.849 157.854 179.412C156.916 179.974 155.808 180.256 154.53 180.256ZM154.547 177.784C155.24 177.784 155.82 177.594 156.286 177.213C156.751 176.827 157.098 176.31 157.325 175.662C157.558 175.014 157.675 174.293 157.675 173.497C157.675 172.696 157.558 171.972 157.325 171.324C157.098 170.67 156.751 170.151 156.286 169.764C155.82 169.378 155.24 169.185 154.547 169.185C153.837 169.185 153.246 169.378 152.774 169.764C152.308 170.151 151.959 170.67 151.726 171.324C151.499 171.972 151.385 172.696 151.385 173.497C151.385 174.293 151.499 175.014 151.726 175.662C151.959 176.31 152.308 176.827 152.774 177.213C153.246 177.594 153.837 177.784 154.547 177.784ZM173.768 170.369L170.955 170.676C170.876 170.392 170.737 170.125 170.538 169.875C170.344 169.625 170.083 169.423 169.754 169.27C169.424 169.116 169.021 169.04 168.543 169.04C167.901 169.04 167.362 169.179 166.924 169.457C166.492 169.736 166.279 170.097 166.285 170.54C166.279 170.92 166.418 171.23 166.702 171.469C166.992 171.707 167.469 171.903 168.134 172.057L170.367 172.534C171.606 172.801 172.526 173.224 173.129 173.804C173.737 174.384 174.043 175.142 174.049 176.08C174.043 176.903 173.802 177.631 173.325 178.261C172.853 178.886 172.197 179.375 171.356 179.727C170.515 180.08 169.549 180.256 168.458 180.256C166.856 180.256 165.566 179.92 164.589 179.25C163.612 178.574 163.029 177.634 162.842 176.429L165.85 176.139C165.987 176.73 166.276 177.176 166.719 177.477C167.163 177.778 167.739 177.929 168.45 177.929C169.183 177.929 169.771 177.778 170.214 177.477C170.663 177.176 170.887 176.804 170.887 176.361C170.887 175.986 170.742 175.676 170.452 175.432C170.168 175.187 169.725 175 169.123 174.869L166.89 174.401C165.634 174.139 164.705 173.699 164.103 173.08C163.501 172.455 163.202 171.665 163.208 170.71C163.202 169.903 163.421 169.205 163.864 168.614C164.313 168.017 164.935 167.557 165.731 167.233C166.532 166.903 167.455 166.739 168.501 166.739C170.035 166.739 171.242 167.065 172.123 167.719C173.009 168.372 173.558 169.256 173.768 170.369ZM183.13 166.909V169.295H175.604V166.909H183.13ZM177.462 163.773H180.548V176.062C180.548 176.477 180.61 176.795 180.735 177.017C180.866 177.233 181.036 177.381 181.246 177.46C181.457 177.54 181.69 177.58 181.945 177.58C182.138 177.58 182.315 177.565 182.474 177.537C182.638 177.509 182.763 177.483 182.849 177.46L183.369 179.872C183.204 179.929 182.968 179.991 182.661 180.06C182.36 180.128 181.991 180.168 181.553 180.179C180.781 180.202 180.085 180.085 179.465 179.83C178.846 179.568 178.354 179.165 177.991 178.619C177.633 178.074 177.457 177.392 177.462 176.574V163.773Z" fill="#FFA500"/>
<defs>
<filter id="filter0_d_409_316" x="0" y="0" width="255" height="223" filterUnits="userSpaceOnUse" color-interpolation-filters="sRGB">
<feFlood flood-opacity="0" result="BackgroundImageFix"/>
<feColorMatrix in="SourceAlpha" type="matrix" values="0 0 0 0 0 0 0 0 0 0 0 0 0 0 0 0 0 0 127 0" result="hardAlpha"/>
<feOffset dy="4"/>
<feGaussianBlur stdDeviation="2"/>
<feComposite in2="hardAlpha" operator="out"/>
<feColorMatrix type="matrix" values="0 0 0 0 0 0 0 0 0 0 0 0 0 0 0 0 0 0 0.25 0"/>
<feBlend mode="normal" in2="BackgroundImageFix" result="effect1_dropShadow_409_316"/>
<feBlend mode="normal" in="SourceGraphic" in2="effect1_dropShadow_409_316" result="shape"/>
</filter>
</defs>
</svg>
